<?xml version="1.0" standalone="no"?>
<!DOCTYPE svg PUBLIC "-//W3C//DTD SVG 20010904//EN"
 "http://www.w3.org/TR/2001/REC-SVG-20010904/DTD/svg10.dtd">
<svg version="1.0" xmlns="http://www.w3.org/2000/svg"
 width="512.000000pt" height="512.000000pt" viewBox="0 0 512.000000 512.000000"
 preserveAspectRatio="xMidYMid meet">

<g transform="translate(0.000000,512.000000) scale(0.100000,-0.100000)"
fill="#000000" stroke="none">
<path d="M3170 4224 c-75 -20 -153 -69 -211 -132 -53 -57 -61 -88 -31 -115 31
-28 52 -20 123 48 58 55 79 68 140 86 54 16 84 20 127 15 78 -9 172 -57 221
-112 44 -50 81 -136 81 -187 0 -119 88 -207 207 -207 51 0 137 -37 187 -81 28
-25 58 -66 78 -106 27 -55 32 -77 32 -137 1 -107 -24 -168 -98 -242 -104 -104
-210 -122 -416 -70 -123 30 -150 32 -216 9 -42 -14 -79 -46 -246 -211 l-198
-196 0 57 c0 76 -16 87 -132 87 l-88 0 0 88 c0 116 -11 132 -88 132 l-56 0
191 193 c105 105 199 208 209 227 25 47 23 151 -4 255 -11 44 -24 105 -28 135
-4 30 -13 63 -22 73 -20 23 -55 22 -77 -3 -23 -25 -17 -105 19 -248 17 -65 24
-112 19 -134 -5 -26 -57 -84 -254 -284 -137 -138 -249 -258 -249 -267 0 -9 9
-26 20 -37 17 -17 33 -20 115 -20 l95 0 0 -98 c0 -63 4 -102 12 -110 8 -8 47
-12 110 -12 l98 0 0 -95 c0 -82 3 -98 20 -115 11 -11 28 -20 37 -20 9 0 129
112 267 249 193 191 258 249 283 254 19 4 71 -4 135 -19 136 -33 213 -40 290
-24 94 18 165 56 234 124 262 262 112 704 -257 756 -45 7 -81 17 -91 28 -11
10 -21 46 -28 91 -38 269 -300 444 -560 375z"/>
<path d="M2302 3724 c-22 -15 -22 -19 -22 -238 0 -203 2 -224 18 -239 24 -22
55 -21 75 1 15 16 17 48 17 240 0 217 0 221 -22 236 -12 9 -27 16 -33 16 -6 0
-21 -7 -33 -16z"/>
<path d="M1685 3435 c-14 -13 -25 -30 -25 -36 0 -7 74 -87 164 -178 158 -159
166 -165 193 -155 16 5 32 21 37 37 10 27 4 35 -155 193 -91 90 -171 164 -178
164 -6 0 -23 -11 -36 -25z"/>
<path d="M1393 2814 c-15 -24 -15 -29 -2 -53 l15 -26 229 0 229 0 15 26 c13
24 13 29 -2 53 l-17 26 -225 0 -225 0 -17 -26z"/>
<path d="M1925 2451 c-168 -167 -227 -220 -252 -224 -19 -4 -72 4 -135 19
-136 33 -213 40 -290 24 -94 -18 -165 -56 -234 -124 -115 -116 -158 -268 -119
-419 47 -182 190 -311 372 -337 112 -15 103 -6 123 -130 61 -372 517 -509 771
-232 52 56 61 89 33 116 -29 29 -60 19 -115 -39 -75 -79 -142 -109 -244 -109
-71 -1 -88 3 -147 32 -41 20 -82 50 -107 78 -44 50 -81 136 -81 187 0 117 -85
206 -197 207 -107 0 -221 77 -272 183 -43 88 -49 157 -21 248 19 63 30 81 84
135 54 54 72 65 135 84 83 26 136 24 261 -9 123 -32 171 -36 231 -16 48 16 76
40 265 227 l210 208 72 0 72 0 0 -98 c0 -63 4 -102 12 -110 8 -8 47 -12 110
-12 l98 0 0 -72 0 -72 -204 -205 c-112 -114 -211 -221 -221 -240 -29 -57 -29
-125 -1 -233 14 -54 29 -123 32 -155 4 -32 14 -66 22 -75 20 -24 55 -23 77 2
23 26 17 105 -20 250 -17 67 -24 113 -19 134 5 23 64 89 225 251 l219 221 0
136 c0 168 0 168 -132 168 l-88 0 0 88 c0 132 1 132 -168 132 l-137 0 -220
-219z"/>
<path d="M3247 2372 c-22 -24 -21 -55 1 -75 16 -15 47 -17 229 -17 116 0 219
3 228 6 27 11 38 53 20 80 l-15 24 -224 0 c-203 0 -224 -2 -239 -18z"/>
<path d="M3086 2039 c-14 -11 -26 -28 -26 -37 0 -22 320 -342 341 -342 24 0
62 45 55 67 -7 22 -318 333 -333 333 -6 0 -22 -9 -37 -21z"/>
<path d="M2752 1874 c-22 -15 -22 -19 -22 -239 0 -220 0 -224 22 -239 30 -21
44 -20 68 4 19 19 20 33 20 239 0 216 0 220 -22 235 -12 9 -27 16 -33 16 -6 0
-21 -7 -33 -16z"/>
</g>
</svg>
