<?xml version="1.0" standalone="no"?>
<!DOCTYPE svg PUBLIC "-//W3C//DTD SVG 20010904//EN"
 "http://www.w3.org/TR/2001/REC-SVG-20010904/DTD/svg10.dtd">
<svg version="1.0" xmlns="http://www.w3.org/2000/svg"
 width="512.000000pt" height="512.000000pt" viewBox="0 0 512.000000 512.000000"
 preserveAspectRatio="xMidYMid meet">

<g transform="translate(0.000000,512.000000) scale(0.100000,-0.100000)"
fill="#000000" stroke="none">
<path d="M1590 4327 c-90 -31 -154 -70 -228 -141 -171 -163 -230 -406 -156
-634 31 -96 166 -352 261 -497 54 -82 110 -170 125 -195 35 -60 98 -214 98
-238 0 -15 -21 -28 -90 -57 -91 -37 -128 -69 -145 -123 -3 -12 -14 -26 -23
-31 -9 -5 -89 -19 -177 -31 -88 -12 -175 -29 -192 -37 -59 -27 -98 -82 -117
-164 -32 -143 -33 -141 25 -298 77 -210 113 -243 264 -240 100 2 129 -12 145
-68 6 -21 35 -204 66 -408 57 -383 60 -395 105 -395 21 0 49 26 49 46 0 42
-121 797 -131 816 -42 82 -128 123 -235 112 -100 -10 -105 -4 -185 222 l-28
81 20 86 c12 50 28 92 39 102 13 12 69 24 182 41 90 13 173 26 185 29 33 8 82
53 101 94 13 27 31 43 74 63 31 16 67 29 79 30 22 3 24 -2 31 -57 5 -33 15
-90 24 -128 l16 -67 -64 -63 c-95 -93 -105 -139 -62 -297 35 -130 66 -162 162
-165 55 -2 87 -21 102 -61 5 -13 -11 -184 -41 -434 -47 -390 -49 -413 -33
-431 20 -22 57 -25 73 -5 6 7 34 202 62 433 56 458 56 470 3 533 -36 42 -75
60 -147 68 l-61 7 -23 90 c-30 115 -20 153 51 205 l39 29 34 -29 c83 -73 201
-107 311 -89 143 22 294 90 355 159 l42 47 46 -48 c50 -51 127 -94 229 -127
191 -62 326 -43 439 63 l50 47 99 -56 c63 -36 110 -56 131 -56 40 0 87 24 101
51 11 20 12 20 32 2 11 -10 29 -30 40 -46 l19 -27 -36 -42 c-67 -79 -81 -197
-34 -289 l19 -39 -43 -173 c-46 -180 -47 -209 -8 -222 31 -10 59 11 70 53 5
20 22 84 36 142 15 58 30 108 33 112 4 4 27 0 52 -8 25 -9 66 -14 92 -12 l48
3 0 -50 c0 -28 -9 -198 -20 -379 -19 -306 -19 -331 -3 -348 20 -22 56 -23 73
-3 8 10 20 145 37 422 24 403 24 406 49 436 93 111 95 256 4 360 -55 63 -116
90 -201 91 -74 1 -81 5 -151 88 l-39 47 22 42 c28 57 22 114 -18 150 -16 14
-86 58 -156 98 -70 40 -127 79 -127 86 0 27 59 177 96 243 20 37 65 108 99
157 138 199 279 476 310 608 29 123 13 277 -40 389 -27 58 -49 74 -84 63 -34
-11 -34 -41 0 -128 29 -72 33 -94 33 -182 1 -114 -10 -152 -84 -312 -57 -121
-141 -265 -225 -388 -147 -213 -215 -386 -249 -635 -8 -54 -22 -114 -30 -132
-47 -98 -138 -158 -239 -158 -124 0 -297 67 -359 139 -48 56 -60 104 -56 236
l3 110 216 5 216 5 49 30 c32 20 60 48 80 82 31 51 64 174 64 237 0 54 -30
125 -71 168 l-38 41 48 46 c68 64 94 120 95 201 1 83 -11 111 -101 241 -59 85
-83 111 -122 133 -27 14 -56 26 -65 26 -9 0 -16 3 -16 6 0 15 214 316 243 340
56 48 114 68 197 68 65 1 85 -4 145 -32 38 -18 84 -44 102 -58 51 -39 103 -28
103 23 0 30 -40 65 -124 109 -122 65 -229 80 -337 48 -125 -37 -180 -91 -345
-334 -179 -264 -238 -310 -398 -310 -158 1 -220 50 -406 325 -67 99 -142 199
-167 223 -112 105 -269 139 -413 89z m257 -106 c27 -12 68 -41 90 -64 41 -42
223 -303 223 -319 0 -4 -7 -8 -15 -8 -26 0 -88 -36 -116 -67 -49 -53 -141
-195 -156 -240 -19 -55 -14 -154 11 -205 10 -20 41 -59 69 -87 l51 -51 -36
-37 c-73 -77 -87 -142 -58 -272 25 -114 37 -138 94 -188 64 -56 96 -63 312
-63 104 0 195 -4 203 -9 11 -7 13 -33 9 -128 -5 -108 -8 -125 -34 -172 -31
-57 -76 -93 -161 -129 -186 -79 -323 -66 -416 38 -50 54 -63 87 -77 190 -34
258 -98 415 -279 690 -109 165 -229 393 -261 499 -22 70 -26 196 -9 271 38
165 196 330 355 369 57 15 143 6 201 -18z m464 -544 c79 -69 135 -87 272 -87
103 0 117 2 172 29 33 15 71 41 85 56 50 55 121 71 180 40 35 -18 154 -186
168 -237 10 -38 4 -87 -17 -125 -6 -12 -62 -66 -124 -121 -61 -54 -128 -117
-147 -138 -52 -58 -104 -149 -135 -236 -17 -47 -38 -87 -57 -105 -27 -26 -36
-28 -121 -31 -118 -5 -151 13 -185 103 -36 95 -45 110 -74 113 -19 2 -31 -4
-42 -21 -15 -22 -14 -29 8 -93 13 -38 27 -77 31 -86 7 -16 -1 -18 -90 -18
-148 0 -188 27 -219 147 -30 114 -17 180 44 223 l31 22 54 -51 c56 -53 65 -57
94 -41 56 30 31 72 -122 203 -140 120 -162 152 -155 228 4 40 17 67 71 146 82
119 104 135 173 130 45 -3 59 -10 105 -50z m812 -617 c37 -43 41 -79 21 -171
-29 -137 -72 -169 -228 -169 l-94 0 34 93 c39 103 107 211 167 262 45 38 57
37 100 -15z m455 -655 c56 -32 102 -62 102 -66 0 -11 -100 -179 -107 -179 -3
0 -46 23 -95 51 -62 36 -88 56 -84 66 3 8 10 44 16 81 21 143 19 135 43 120
12 -8 68 -41 125 -73z m428 -431 c40 -19 72 -60 85 -109 22 -78 -35 -170 -119
-196 -83 -24 -178 32 -201 119 -36 133 107 247 235 186z"/>
<path d="M2054 2514 c-40 -19 -54 -51 -54 -119 0 -82 29 -109 145 -134 86 -19
92 -19 125 -3 63 30 111 165 80 223 -20 36 -63 49 -167 49 -68 0 -108 -5 -129
-16z m206 -89 c0 -19 -31 -75 -42 -75 -7 0 -35 6 -63 13 -43 11 -50 17 -53 40
l-3 27 80 0 c45 0 81 -2 81 -5z"/>
<path d="M2437 3472 c-24 -26 -21 -59 6 -76 32 -21 142 -30 212 -17 64 12 69
15 79 48 5 15 1 28 -13 42 -18 18 -28 20 -68 14 -60 -9 -85 -9 -149 0 -42 6
-53 4 -67 -11z"/>
<path d="M2433 3261 c-23 -22 -12 -64 21 -80 35 -16 198 -18 238 -3 38 15 53
48 35 75 -13 19 -23 21 -147 21 -101 1 -137 -2 -147 -13z"/>
<path d="M2430 3056 c-6 -6 -10 -23 -10 -39 0 -39 46 -57 148 -57 105 0 140 8
159 36 14 21 14 27 1 46 -14 21 -22 22 -152 23 -77 0 -141 -4 -146 -9z"/>
<path d="M2854 2520 c-32 -13 -64 -59 -64 -92 0 -15 13 -58 30 -94 24 -53 35
-67 65 -80 33 -13 43 -13 120 6 100 23 130 40 144 82 25 72 4 145 -49 173 -32
17 -208 20 -246 5z m196 -119 c0 -26 -4 -29 -57 -40 -73 -14 -68 -15 -81 14
-23 51 -18 55 63 55 l75 0 0 -29z"/>
<path d="M3592 1162 c-15 -10 -92 -292 -92 -337 0 -17 5 -36 12 -43 19 -19 56
-14 72 11 16 25 86 292 86 329 0 41 -42 62 -78 40z"/>
</g>
</svg>
