<?xml version="1.0" standalone="no"?>
<!DOCTYPE svg PUBLIC "-//W3C//DTD SVG 20010904//EN"
 "http://www.w3.org/TR/2001/REC-SVG-20010904/DTD/svg10.dtd">
<svg version="1.0" xmlns="http://www.w3.org/2000/svg"
 width="512.000000pt" height="512.000000pt" viewBox="0 0 512.000000 512.000000"
 preserveAspectRatio="xMidYMid meet">

<g transform="translate(0.000000,512.000000) scale(0.100000,-0.100000)"
fill="#000000" stroke="none">
<path d="M3436 4240 c-41 -13 -75 -48 -88 -92 -9 -31 -8 -45 6 -81 l17 -45
-43 -71 -43 -71 -212 0 c-116 0 -218 -3 -227 -6 -8 -3 -63 -91 -123 -195
l-108 -188 -225 -3 -224 -3 -107 -185 -107 -185 -86 -3 -86 -3 -38 40 c-47 50
-95 61 -149 35 -88 -44 -108 -142 -42 -210 58 -60 129 -58 191 7 l37 39 85 0
84 0 96 -166 c53 -91 96 -170 96 -176 0 -5 -19 -41 -41 -79 -33 -55 -46 -69
-65 -69 -103 0 -169 -118 -115 -206 20 -32 74 -64 111 -64 37 0 91 32 111 64
23 37 25 96 4 135 -13 27 -12 32 31 105 l44 76 220 0 219 0 19 28 c10 15 61
100 112 190 l94 162 200 0 201 0 38 -70 c36 -67 37 -71 22 -100 -30 -59 -9
-137 49 -175 31 -21 94 -22 133 -2 111 58 77 230 -49 244 -42 5 -45 8 -81 70
-20 36 -37 70 -37 76 0 6 47 93 105 194 58 100 105 187 105 193 0 6 -42 84
-94 174 -133 229 -126 201 -76 285 38 64 45 71 74 71 101 0 168 113 116 197
-34 57 -95 81 -154 63z m77 -101 c30 -42 -16 -94 -62 -70 -23 13 -29 59 -9 79
19 19 55 14 71 -9z m-131 -520 l97 -170 -97 -169 -97 -170 -201 0 -202 0 -97
170 -97 169 97 171 98 170 201 0 201 -1 97 -170z m-686 -354 c45 -77 90 -154
99 -171 l16 -31 -98 -171 -98 -172 -199 3 -200 2 -98 169 -98 169 91 161 c51
89 97 167 102 174 7 9 56 12 206 10 l195 -3 82 -140z m-1018 -167 c19 -19 14
-55 -9 -72 -43 -30 -93 20 -63 63 17 23 53 28 72 9z m1816 -274 c49 -48 -15
-113 -66 -67 -23 21 -23 38 2 63 24 24 43 25 64 4z m-1436 -390 c12 -8 22 -26
22 -38 0 -54 -77 -64 -95 -12 -8 24 -6 31 14 47 28 23 31 23 59 3z"/>
<path d="M880 2060 c-8 -14 -8 -26 0 -40 11 -20 21 -20 805 -20 437 0 795 -3
795 -8 0 -4 -137 -245 -305 -536 -168 -290 -305 -536 -305 -547 0 -10 9 -23
19 -29 27 -14 1315 -14 1342 0 10 6 19 19 19 29 0 11 -137 257 -305 547 -168
291 -305 532 -305 536 0 5 358 8 795 8 784 0 794 0 805 20 8 14 8 26 0 40 -11
20 -21 20 -1680 20 -1659 0 -1669 0 -1680 -20z m1965 -597 c154 -267 282 -490
283 -495 2 -4 -254 -8 -568 -8 -314 0 -570 4 -568 8 9 24 564 981 568 981 3 0
131 -218 285 -486z"/>
</g>
</svg>
