<?xml version="1.0" standalone="no"?>
<!DOCTYPE svg PUBLIC "-//W3C//DTD SVG 20010904//EN"
 "http://www.w3.org/TR/2001/REC-SVG-20010904/DTD/svg10.dtd">
<svg version="1.0" xmlns="http://www.w3.org/2000/svg"
 width="512.000000pt" height="512.000000pt" viewBox="0 0 512.000000 512.000000"
 preserveAspectRatio="xMidYMid meet">

<g transform="translate(0.000000,512.000000) scale(0.100000,-0.100000)"
fill="#000000" stroke="none">
<path d="M1200 4334 c-197 -51 -340 -187 -406 -384 -14 -40 -19 -85 -19 -165
0 -134 23 -216 95 -331 l47 -77 -20 -41 c-12 -24 -22 -70 -25 -113 -5 -72 -4
-73 54 -190 89 -177 157 -233 307 -253 40 -5 88 -14 107 -20 55 -17 143 2 202
42 36 25 266 25 347 0 l53 -17 33 -101 c39 -120 64 -171 139 -283 84 -126 88
-155 48 -336 -17 -76 -21 -83 -82 -146 -110 -112 -169 -233 -190 -389 -39
-282 114 -564 375 -690 142 -68 280 -85 433 -54 92 18 235 85 258 119 15 23
15 27 0 50 -9 14 -24 25 -34 25 -9 0 -53 -18 -97 -40 -177 -89 -348 -90 -525
-4 -138 68 -255 213 -295 364 -19 70 -19 219 0 290 53 201 224 367 427 415
296 70 604 -118 683 -415 34 -127 11 -309 -52 -418 -39 -68 -20 -123 39 -109
19 5 34 25 61 79 62 128 85 258 67 388 -21 156 -80 277 -190 389 -61 63 -65
70 -82 146 -40 181 -36 210 48 336 75 112 100 163 139 283 l33 101 53 17 c81
25 311 25 347 0 59 -40 147 -59 202 -42 19 6 67 15 107 20 150 20 218 76 307
253 58 116 59 117 54 189 -3 46 -13 88 -25 113 l-21 40 48 78 c72 116 95 198
95 332 0 80 -5 125 -19 165 -67 199 -211 334 -411 385 -164 42 -344 -5 -466
-122 -64 -61 -134 -158 -166 -233 -36 -83 -148 -160 -254 -175 -33 -5 -74 0
-150 19 -250 61 -388 61 -638 0 -76 -19 -117 -24 -150 -19 -106 15 -218 92
-254 175 -33 76 -104 175 -167 234 -127 117 -307 163 -470 120z m225 -99 c33
-9 84 -30 114 -48 62 -37 146 -133 183 -209 15 -29 54 -109 87 -178 99 -202
209 -318 386 -405 119 -58 186 -75 326 -82 242 -12 450 68 619 237 84 83 131
155 198 305 30 66 70 144 89 173 104 163 266 243 429 213 204 -37 349 -181
385 -381 17 -97 1 -200 -47 -295 -55 -111 -53 -110 -107 -80 l-46 26 35 57
c44 73 64 140 64 217 0 143 -75 261 -205 322 -51 24 -73 28 -145 28 -70 0 -93
-4 -130 -24 -74 -38 -136 -113 -192 -231 -27 -58 -61 -127 -74 -153 -39 -75
-21 -128 37 -114 21 5 39 35 101 165 61 125 86 167 121 199 79 73 164 80 265
23 62 -36 98 -87 114 -161 17 -81 4 -135 -54 -232 l-50 -85 -57 -10 c-31 -6
-76 -14 -101 -17 -105 -14 -202 -88 -255 -195 -18 -36 -42 -83 -53 -105 -12
-22 -23 -48 -26 -57 -8 -26 -145 -25 -203 2 -42 18 -43 21 -43 65 0 43 6 53
70 131 76 92 89 133 50 154 -32 17 -54 4 -113 -68 -30 -37 -94 -110 -141 -162
-47 -52 -99 -120 -116 -151 -34 -65 -60 -163 -60 -234 -1 -131 -55 -256 -161
-370 -111 -120 -140 -214 -102 -327 l20 -58 -77 0 -77 0 20 58 c37 110 7 212
-94 318 -69 71 -98 80 -125 39 -15 -23 -15 -27 0 -51 10 -14 39 -49 66 -79 77
-85 85 -148 34 -245 -13 -25 -24 -50 -24 -56 0 -12 -80 -47 -88 -39 -3 3 0 28
6 56 28 120 9 207 -74 330 -125 185 -164 309 -171 539 l-4 155 21 -25 c51 -60
90 -179 90 -276 0 -75 19 -143 46 -161 22 -14 26 -14 50 2 24 15 26 21 20 59
-4 22 -11 84 -16 136 -17 172 -50 242 -180 385 -45 50 -115 131 -156 181 -40
50 -79 94 -86 96 -21 9 -56 -9 -63 -32 -8 -26 20 -71 112 -181 57 -70 63 -81
63 -123 0 -45 -1 -48 -42 -66 -59 -27 -196 -28 -204 -2 -3 9 -14 35 -26 57
-12 22 -36 69 -53 105 -53 107 -150 181 -255 195 -25 3 -70 11 -101 17 l-57
10 -50 85 c-58 97 -71 151 -54 232 16 74 52 125 114 161 101 57 186 50 265
-23 34 -31 59 -72 108 -173 66 -137 89 -163 124 -144 37 19 34 45 -25 174 -67
148 -126 226 -204 270 -50 28 -63 31 -140 31 -72 0 -94 -4 -145 -28 -204 -95
-266 -332 -141 -539 l35 -57 -46 -26 c-54 -30 -52 -31 -107 80 -140 279 7 597
309 671 69 17 121 17 190 -1z m1405 -505 c140 -33 179 -36 263 -16 37 9 57 10
57 3 0 -6 -39 -49 -87 -96 -97 -95 -177 -143 -303 -183 -62 -19 -97 -23 -200
-23 -103 0 -138 4 -200 23 -126 40 -206 88 -302 183 -49 47 -88 90 -88 96 0 7
20 6 58 -3 81 -19 123 -17 242 12 58 14 132 29 165 34 100 15 258 3 395 -30z
m-1530 -330 c118 -18 166 -52 214 -148 18 -37 43 -85 55 -107 44 -78 11 -186
-75 -252 -32 -24 -46 -28 -98 -28 -84 1 -196 19 -238 39 -19 9 -47 29 -61 44
-38 40 -127 219 -127 254 0 81 53 166 124 200 43 20 63 20 206 -2z m2726 1
c71 -32 124 -117 124 -199 0 -35 -89 -214 -127 -254 -35 -37 -84 -59 -157 -69
-34 -5 -80 -11 -103 -15 -63 -10 -105 2 -153 43 -77 66 -100 161 -59 238 12
22 38 72 58 110 43 83 103 130 179 140 26 3 65 9 87 14 65 14 108 12 151 -8z
m-939 -413 c-8 -226 -46 -350 -163 -523 -91 -137 -111 -219 -82 -344 6 -28 9
-53 6 -56 -8 -8 -88 27 -88 39 0 6 -11 31 -24 56 -55 104 -44 158 53 265 126
142 174 248 191 425 6 61 19 134 30 162 18 48 67 128 78 128 2 0 2 -69 -1
-152z m-1157 -19 l0 -71 -27 7 c-16 4 -76 13 -134 19 l-106 11 12 35 12 35 84
8 c46 4 95 11 109 16 48 18 50 15 50 -60z m1306 61 c16 -5 67 -13 113 -17 l84
-8 12 -35 12 -35 -106 -11 c-58 -6 -118 -15 -133 -19 l-28 -7 0 71 c0 39 4 71
9 71 4 0 21 -4 37 -10z"/>
<path d="M2294 1780 c-69 -35 -102 -121 -73 -197 5 -15 35 -53 65 -83 l54 -56
-51 -49 c-62 -61 -79 -92 -79 -145 0 -109 109 -186 206 -145 22 9 62 39 91 67
l52 52 59 -56 c39 -38 73 -60 100 -68 99 -26 192 47 192 150 0 53 -17 84 -79
145 l-51 49 54 56 c30 30 60 68 65 83 29 76 -4 163 -74 197 -77 37 -124 24
-207 -58 l-58 -56 -57 56 c-84 82 -132 96 -209 58z m171 -160 c46 -44 89 -80
95 -80 6 0 49 36 95 80 46 44 90 80 97 80 24 0 58 -31 58 -52 0 -13 -29 -52
-75 -99 -49 -50 -75 -85 -75 -100 0 -15 26 -49 75 -100 75 -77 84 -94 65 -130
-21 -39 -59 -24 -141 56 -49 48 -85 75 -99 75 -14 0 -50 -27 -99 -75 -82 -80
-120 -95 -141 -56 -19 36 -10 53 65 130 49 51 75 85 75 100 0 15 -26 50 -75
100 -46 47 -75 86 -75 99 0 21 34 52 58 52 7 0 51 -36 97 -80z"/>
</g>
</svg>
