<?xml version="1.0" standalone="no"?>
<!DOCTYPE svg PUBLIC "-//W3C//DTD SVG 20010904//EN"
 "http://www.w3.org/TR/2001/REC-SVG-20010904/DTD/svg10.dtd">
<svg version="1.0" xmlns="http://www.w3.org/2000/svg"
 width="512.000000pt" height="512.000000pt" viewBox="0 0 512.000000 512.000000"
 preserveAspectRatio="xMidYMid meet">

<g transform="translate(0.000000,512.000000) scale(0.100000,-0.100000)"
fill="#000000" stroke="none">
<path d="M1783 4220 c-32 -19 -53 -66 -53 -117 l0 -23 -299 0 c-299 0 -300 0
-315 -22 -24 -34 -24 -2432 0 -2466 l15 -22 583 0 c552 0 584 1 599 18 22 25
21 48 -3 72 -20 20 -33 20 -560 20 l-540 0 0 1145 0 1145 259 0 258 0 7 -49
c7 -57 40 -95 87 -105 60 -12 782 -6 819 7 40 14 70 63 70 115 l0 32 260 0
260 0 0 -696 c0 -460 4 -702 10 -715 15 -27 64 -25 84 3 14 20 16 108 16 748
0 640 -2 728 -16 748 -15 22 -16 22 -315 22 l-299 0 0 30 c0 48 -25 97 -59
114 -26 14 -87 16 -433 16 -382 0 -405 -1 -435 -20z m815 -192 l-3 -103 -375
0 -375 0 -3 103 -3 102 381 0 381 0 -3 -102z"/>
<path d="M1996 3424 c-13 -13 -16 -44 -16 -185 l0 -169 -166 0 c-95 0 -174 -4
-185 -10 -18 -10 -19 -23 -19 -230 0 -185 2 -221 16 -234 13 -13 44 -16 185
-16 l169 0 0 -169 c0 -141 3 -172 16 -185 13 -14 47 -16 220 -16 123 0 213 4
225 10 18 10 19 23 19 185 l0 175 168 0 c129 0 173 3 188 14 18 13 19 28 19
231 0 203 -1 218 -19 231 -15 11 -59 14 -188 14 l-168 0 0 175 c0 162 -1 175
-19 185 -12 6 -102 10 -225 10 -173 0 -207 -2 -220 -16z m364 -269 c0 -162 1
-175 19 -185 11 -6 90 -10 185 -10 l166 0 0 -135 0 -135 -166 0 c-95 0 -174
-4 -185 -10 -18 -10 -19 -23 -19 -185 l0 -175 -140 0 -140 0 0 175 c0 162 -1
175 -19 185 -11 6 -90 10 -185 10 l-166 0 0 135 0 135 166 0 c95 0 174 4 185
10 18 10 19 23 19 185 l0 175 140 0 140 0 0 -175z"/>
<path d="M3210 2363 c-304 -35 -556 -254 -637 -553 -27 -101 -25 -293 6 -390
68 -222 229 -404 429 -485 350 -142 758 12 926 350 56 113 79 212 79 340 -1
207 -71 379 -214 524 -151 154 -382 237 -589 214z m240 -129 c164 -48 314
-173 387 -324 127 -260 82 -532 -122 -736 -133 -133 -285 -192 -464 -181 -257
16 -469 178 -559 429 -23 64 -26 89 -26 198 -1 90 4 140 16 178 63 196 211
355 393 421 33 12 83 26 110 31 66 12 198 4 265 -16z"/>
<path d="M3246 2175 c-23 -23 -20 -78 4 -100 28 -25 71 -10 84 28 21 58 -46
113 -88 72z"/>
<path d="M3252 1984 c-21 -15 -22 -20 -22 -198 0 -230 -11 -216 164 -216 70 0
136 5 147 10 13 7 19 21 19 45 0 47 -20 55 -129 55 l-91 0 0 140 c0 127 -2
142 -20 160 -24 24 -38 25 -68 4z"/>
<path d="M2737 1662 c-37 -40 -10 -92 47 -92 35 0 66 25 66 53 0 48 -81 75
-113 39z"/>
<path d="M3737 1662 c-37 -41 -10 -92 48 -92 24 0 39 7 49 22 21 30 20 44 -4
68 -25 25 -72 26 -93 2z"/>
<path d="M3252 1174 c-24 -17 -30 -61 -12 -95 13 -23 62 -26 84 -3 22 22 20
70 -4 94 -24 24 -38 25 -68 4z"/>
</g>
</svg>
