<?xml version="1.0" standalone="no"?>
<!DOCTYPE svg PUBLIC "-//W3C//DTD SVG 20010904//EN"
 "http://www.w3.org/TR/2001/REC-SVG-20010904/DTD/svg10.dtd">
<svg version="1.0" xmlns="http://www.w3.org/2000/svg"
 width="512.000000pt" height="512.000000pt" viewBox="0 0 512.000000 512.000000"
 preserveAspectRatio="xMidYMid meet">

<g transform="translate(0.000000,512.000000) scale(0.100000,-0.100000)"
fill="#000000" stroke="none">
<path d="M2075 4326 c-171 -54 -288 -186 -332 -373 l-17 -71 -40 -6 c-96 -15
-206 -99 -255 -193 -11 -22 -25 -70 -32 -106 -49 -265 242 -496 488 -387 l43
19 0 -27 c-1 -15 -5 -58 -10 -97 -5 -38 -14 -146 -20 -240 -7 -114 -16 -183
-27 -210 -14 -33 -18 -88 -21 -306 -7 -466 18 -632 129 -857 60 -122 61 -125
55 -184 -15 -129 -73 -265 -162 -378 -61 -77 -58 -130 8 -130 64 0 202 215
244 383 9 37 17 66 18 65 1 -2 98 -103 215 -226 175 -182 218 -222 240 -222
34 0 51 17 51 51 0 22 -42 71 -207 245 -291 304 -337 365 -406 543 -60 153
-67 218 -67 609 0 331 1 355 20 391 57 114 225 115 288 3 22 -39 22 -46 22
-433 0 -417 5 -482 46 -595 34 -97 63 -138 354 -498 234 -291 257 -316 285
-316 17 0 36 5 43 12 32 32 13 61 -239 373 -286 352 -302 375 -335 454 -36 90
-44 197 -44 594 0 348 1 369 18 362 60 -24 182 -47 276 -52 l110 -6 71 -71
c78 -77 122 -147 154 -243 30 -90 28 -105 -18 -124 -73 -31 -161 -160 -161
-238 0 -133 141 -241 273 -211 42 10 62 23 103 64 l51 52 49 -31 c192 -124
283 -360 225 -587 -25 -97 -59 -164 -116 -228 -25 -28 -45 -59 -45 -69 0 -25
32 -51 62 -51 37 0 109 84 158 184 54 108 73 204 67 331 -9 216 -111 394 -289
512 -61 39 -68 48 -68 76 0 64 -21 111 -71 160 -27 26 -56 47 -64 47 -8 0 -17
12 -20 28 -30 143 -62 222 -129 316 -55 77 -105 123 -231 213 -95 67 -230 196
-255 244 -11 20 -10 21 6 15 38 -15 131 -18 169 -6 47 15 123 85 165 149 34
54 65 139 75 205 5 32 13 47 26 51 11 4 33 18 49 32 45 38 42 88 -11 170 -51
77 -56 117 -39 268 10 85 10 126 2 175 -31 174 -157 320 -323 371 -53 17 -92
19 -312 18 -174 0 -264 -4 -292 -13z m605 -122 c25 -11 60 -33 77 -48 31 -26
32 -29 19 -54 -34 -65 -119 -111 -206 -112 -78 0 -113 -24 -139 -95 -28 -76
-47 -111 -88 -167 -34 -47 -35 -48 -63 -33 -37 19 -113 19 -148 1 -84 -44
-125 -161 -88 -251 13 -30 13 -35 -3 -49 -10 -9 -22 -16 -27 -16 -13 0 -110
166 -142 242 -24 57 -27 75 -27 188 1 106 4 134 24 183 42 106 111 175 219
218 42 17 73 18 297 16 230 -2 254 -4 295 -23z m198 -216 c21 -67 22 -109 8
-224 -19 -152 -5 -231 54 -315 21 -29 20 -49 -4 -49 -30 0 -58 -49 -71 -125
-8 -43 -25 -100 -39 -129 -30 -62 -97 -133 -132 -142 -16 -4 -84 6 -168 25
-172 38 -191 39 -212 6 -28 -43 -6 -74 68 -89 15 -3 29 -15 33 -25 12 -40 90
-148 153 -213 36 -38 61 -68 56 -68 -62 1 -253 74 -320 122 -45 32 -120 58
-169 58 -18 0 -53 -7 -80 -14 l-48 -15 6 92 c4 51 14 159 24 240 16 143 18
149 43 162 15 8 32 21 39 29 12 14 15 14 37 -1 14 -9 50 -22 82 -29 70 -16
102 -2 102 46 0 33 -25 54 -78 64 -65 12 -122 72 -122 129 0 33 37 77 63 77
12 -1 33 -7 47 -15 62 -35 121 -11 184 78 44 61 106 181 106 203 0 7 28 13 68
16 81 6 176 51 220 104 15 18 30 33 34 33 3 1 11 -14 16 -31z m-1141 -285 c14
-91 42 -161 108 -272 30 -51 55 -97 55 -102 0 -5 -19 -18 -42 -30 -52 -27
-145 -30 -199 -7 -164 71 -203 286 -74 411 32 31 96 64 130 66 6 1 16 -29 22
-66z m1427 -1724 c32 -15 60 -72 51 -106 -7 -30 -53 -104 -74 -120 -29 -22
-96 -16 -129 12 -59 50 -48 120 29 190 42 37 78 44 123 24z"/>
</g>
</svg>
