<?xml version="1.0" standalone="no"?>
<!DOCTYPE svg PUBLIC "-//W3C//DTD SVG 20010904//EN"
 "http://www.w3.org/TR/2001/REC-SVG-20010904/DTD/svg10.dtd">
<svg version="1.0" xmlns="http://www.w3.org/2000/svg"
 width="512.000000pt" height="512.000000pt" viewBox="0 0 512.000000 512.000000"
 preserveAspectRatio="xMidYMid meet">

<g transform="translate(0.000000,512.000000) scale(0.100000,-0.100000)"
fill="#000000" stroke="none">
<path d="M1380 4331 c-19 -10 -45 -33 -57 -51 -21 -30 -23 -44 -23 -179 0
-132 2 -151 24 -196 25 -55 76 -105 134 -132 34 -16 97 -18 750 -21 l712 -3 0
-189 c0 -104 -5 -213 -11 -242 -25 -117 -103 -218 -207 -266 -50 -24 -70 -27
-157 -27 -95 0 -103 2 -163 34 -75 41 -135 103 -170 179 -25 53 -27 68 -30
220 -4 160 -4 163 -28 179 -20 13 -30 14 -49 5 l-25 -12 0 -159 c0 -131 4
-170 20 -224 24 -79 87 -175 144 -222 62 -51 166 -96 235 -102 l59 -6 170
-171 c169 -170 170 -171 179 -228 l10 -57 -151 -149 -151 -150 -77 -4 c-141
-9 -265 -94 -331 -228 -30 -60 -32 -71 -32 -170 0 -92 4 -112 27 -162 14 -31
45 -77 67 -101 l41 -44 0 -165 c0 -155 1 -167 23 -198 35 -52 70 -73 132 -78
l55 -4 0 -107 c0 -113 6 -131 46 -131 45 0 54 23 54 134 l0 103 56 6 c39 4 66
14 91 33 55 42 63 72 63 251 0 156 0 157 26 184 27 28 35 72 16 91 -21 21 -63
11 -100 -25 -115 -112 -300 -109 -415 6 -60 60 -82 117 -82 212 0 70 4 87 30
134 152 274 555 173 561 -142 1 -71 15 -97 51 -97 32 0 53 39 53 97 l0 58 151
151 151 152 64 -6 c132 -10 256 33 355 125 102 95 149 203 149 343 0 242 -177
441 -414 467 -50 5 -53 7 -218 172 l-168 166 0 181 0 181 45 5 c53 6 75 22 75
53 0 51 25 50 -839 55 -786 5 -807 5 -833 25 -55 41 -68 81 -68 212 0 103 3
122 18 136 17 16 110 17 1130 17 l1112 0 21 -21 c19 -19 21 -30 18 -143 -4
-116 -5 -124 -32 -159 -46 -61 -67 -67 -236 -67 -123 0 -152 -3 -165 -16 -24
-24 -20 -61 9 -80 21 -14 48 -16 173 -12 138 4 153 6 206 32 65 32 117 94 136
162 7 24 10 93 8 172 -3 144 -11 164 -78 210 l-33 22 -1136 0 c-1087 0 -1138
-1 -1171 -19z m1995 -1385 c82 -7 141 -29 199 -74 202 -153 191 -464 -21 -600
-141 -90 -323 -75 -446 38 -69 63 -106 137 -118 237 l-10 78 -149 150 c-83 83
-150 154 -150 158 0 4 6 7 13 7 8 0 41 14 75 30 81 41 169 136 208 224 l29 66
155 -154 155 -154 60 -6z m-401 -642 c26 -41 78 -89 146 -136 l25 -16 -110
-111 c-60 -61 -113 -111 -116 -111 -4 0 -18 19 -32 43 -24 41 -108 127 -124
127 -5 0 -17 7 -28 15 -18 15 -14 20 90 125 60 61 112 110 115 110 3 -1 18
-21 34 -46z m-504 -935 c53 -13 119 -10 180 6 30 8 56 15 58 15 1 0 2 -54 2
-119 0 -118 0 -120 -27 -141 -25 -20 -37 -21 -146 -18 -151 4 -147 0 -147 161
0 118 0 118 23 111 12 -4 38 -11 57 -15z"/>
<path d="M3269 2750 c-47 -25 -86 -71 -99 -118 -12 -46 -12 -58 0 -104 37
-131 213 -181 313 -90 74 67 74 217 0 284 -53 48 -151 61 -214 28z m142 -109
c20 -20 29 -39 29 -61 0 -37 -47 -90 -80 -90 -91 0 -129 123 -51 165 40 22 70
18 102 -14z"/>
<path d="M2486 3566 c-49 -19 -102 -70 -117 -114 -6 -19 -9 -59 -7 -88 14
-173 249 -228 345 -82 23 34 28 53 28 104 0 53 -4 69 -30 105 -50 71 -143 103
-219 75z m124 -121 c53 -56 13 -145 -64 -145 -46 0 -86 41 -86 87 0 75 98 113
150 58z"/>
<path d="M1587 2929 c-32 -19 -47 -64 -47 -149 l0 -80 -80 0 c-86 0 -131 -15
-150 -49 -5 -11 -10 -77 -10 -146 0 -127 0 -127 29 -156 28 -28 33 -29 119
-29 l90 0 4 -95 c3 -88 5 -97 31 -122 26 -27 32 -28 143 -31 179 -6 196 7 204
153 l5 90 85 3 c47 1 95 7 107 14 39 20 53 67 53 180 0 161 -25 188 -171 188
l-79 0 0 91 c0 87 -1 92 -29 120 l-29 29 -129 0 c-70 0 -136 -5 -146 -11z
m233 -192 c0 -67 4 -109 13 -120 10 -13 33 -17 122 -19 l110 -3 3 -87 3 -88
-107 0 c-144 0 -144 0 -144 -142 l0 -109 -87 3 -88 3 -5 113 c-4 85 -9 115
-20 122 -8 5 -61 10 -117 10 l-103 0 0 90 0 90 108 0 c71 0 112 4 120 12 8 8
12 49 12 120 l0 108 90 0 90 0 0 -103z"/>
<path d="M2470 1935 c-70 -32 -110 -94 -110 -171 0 -165 186 -252 312 -146 38
32 67 94 68 143 0 50 -43 129 -86 158 -45 31 -133 39 -184 16z m126 -100 c12
-8 27 -28 34 -45 37 -89 -90 -160 -150 -83 -59 75 39 183 116 128z"/>
</g>
</svg>
