<?xml version="1.0" standalone="no"?>
<!DOCTYPE svg PUBLIC "-//W3C//DTD SVG 20010904//EN"
 "http://www.w3.org/TR/2001/REC-SVG-20010904/DTD/svg10.dtd">
<svg version="1.0" xmlns="http://www.w3.org/2000/svg"
 width="512.000000pt" height="512.000000pt" viewBox="0 0 512.000000 512.000000"
 preserveAspectRatio="xMidYMid meet">

<g transform="translate(0.000000,512.000000) scale(0.100000,-0.100000)"
fill="#000000" stroke="none">
<path d="M2494 3971 c-44 -27 -73 -72 -86 -135 l-12 -54 -70 5 c-66 5 -73 3
-98 -20 -34 -32 -51 -92 -52 -189 -1 -67 2 -79 23 -102 13 -14 36 -27 52 -30
98 -19 89 -12 89 -70 0 -29 5 -67 11 -84 8 -25 7 -37 -9 -69 -11 -21 -23 -62
-27 -91 l-7 -52 -57 1 c-110 3 -141 -38 -141 -184 l0 -99 34 -34 c30 -30 40
-34 89 -34 l54 0 7 -56 c3 -31 13 -69 21 -85 14 -26 14 -32 -1 -61 -9 -18 -19
-60 -22 -95 l-5 -63 -49 0 c-103 0 -134 -43 -130 -179 5 -134 35 -171 138
-171 l61 0 7 -47 c3 -27 15 -63 26 -81 17 -27 18 -37 8 -55 -7 -12 -12 -54
-11 -94 l1 -72 -55 -7 c-61 -7 -107 -43 -116 -91 -7 -40 18 -186 38 -216 24
-37 66 -51 130 -43 54 6 55 6 60 -21 11 -52 50 -117 84 -140 30 -20 46 -23
142 -23 192 0 424 42 649 117 58 19 119 46 136 59 43 31 66 85 63 141 l-3 47
56 11 c98 19 125 63 108 173 -19 114 -53 146 -152 140 l-62 -3 -8 44 c-4 24
-15 55 -23 68 -13 20 -14 31 -6 55 6 17 11 48 11 69 l0 37 60 7 c105 12 133
55 121 183 -9 99 -33 123 -128 131 l-68 6 -5 50 c-3 28 -11 60 -18 72 -10 17
-9 27 3 50 8 15 17 45 20 66 l6 37 55 0 c105 0 134 35 137 163 3 113 -16 133
-144 152 l-36 5 0 53 c0 29 -5 62 -11 73 -8 16 -7 27 8 49 10 16 22 45 25 66
l6 37 64 -6 c108 -8 145 36 148 175 2 72 1 75 -30 103 -23 21 -48 31 -83 36
l-51 7 6 51 c5 42 2 59 -17 95 -38 74 -56 82 -230 97 -198 18 -341 46 -507
100 -150 49 -182 53 -227 25z m169 -130 c162 -57 449 -111 590 -111 66 0 94
-8 102 -28 3 -9 1 -49 -6 -89 -15 -95 -7 -106 96 -122 69 -11 75 -14 75 -36 0
-53 -6 -57 -92 -49 -99 8 -113 -1 -122 -85 -11 -95 -3 -92 -221 -92 -200 0
-333 14 -498 52 -137 32 -131 25 -124 131 7 112 -1 123 -97 133 -37 4 -69 12
-72 17 -3 5 -3 33 0 62 l7 52 74 -11 c106 -17 116 -10 136 90 27 133 24 131
152 86z m-119 -671 c167 -42 249 -52 481 -57 148 -3 235 -9 244 -16 10 -9 12
-29 8 -85 -5 -69 -4 -76 18 -98 21 -21 34 -24 95 -24 l70 0 0 -40 0 -40 -80 0
c-105 0 -120 -13 -120 -105 0 -83 -8 -88 -160 -106 -239 -29 -645 -6 -677 38
-8 10 -13 48 -13 94 0 89 -12 109 -64 109 -18 0 -54 3 -80 6 -42 6 -46 9 -46
34 0 15 3 41 6 58 l6 31 63 -6 c90 -8 112 -1 124 45 6 20 11 60 11 87 0 41 19
95 34 95 2 0 38 -9 80 -20z m31 -691 c152 -20 490 -11 626 17 44 9 59 -17 59
-97 0 -97 14 -109 120 -109 l80 0 0 -40 0 -40 -59 0 c-116 0 -139 -23 -127
-124 8 -71 -2 -78 -144 -110 -185 -40 -283 -51 -483 -51 -221 0 -211 -5 -222
111 -4 44 -13 80 -22 89 -10 11 -38 15 -99 15 l-84 0 0 60 0 60 75 0 c105 0
115 11 115 128 0 99 9 116 55 108 17 -3 66 -11 110 -17z m713 -616 c5 -10 12
-43 15 -75 3 -31 11 -66 17 -78 12 -22 16 -22 101 -16 52 4 89 3 89 -2 0 -5 3
-23 6 -39 l6 -30 -75 -12 c-102 -16 -111 -28 -102 -123 8 -89 9 -88 -110 -129
-184 -62 -377 -100 -590 -114 -111 -8 -118 -2 -139 105 -15 83 -33 104 -81 96
-16 -3 -51 -8 -77 -12 -52 -7 -49 -11 -63 77 l-5 37 67 7 c38 3 79 14 92 22
23 15 24 17 17 113 -5 75 -4 100 6 106 7 5 99 9 203 10 194 1 330 16 485 54
98 24 127 24 138 3z"/>
<path d="M1666 2998 c-9 -12 -16 -29 -16 -37 0 -7 46 -60 102 -117 108 -110
136 -124 171 -86 31 34 19 55 -86 160 -111 110 -140 124 -171 80z"/>
<path d="M1497 2582 c-21 -23 -22 -52 -3 -78 13 -17 29 -19 151 -22 156 -4
185 5 185 58 0 54 -16 60 -174 60 -126 0 -145 -2 -159 -18z"/>
<path d="M1845 2331 c-45 -29 -172 -163 -184 -194 -9 -22 -7 -31 13 -53 34
-40 58 -28 169 84 102 105 113 126 77 162 -25 25 -37 25 -75 1z"/>
</g>
</svg>
